<mxfile host="app.diagrams.net" agent="Mozilla/5.0 (Windows NT 10.0; Win64; x64) AppleWebKit/537.36 (KHTML, like Gecko) Chrome/136.0.0.0 Safari/537.36 Edg/136.0.0.0" version="27.0.9">
  <diagram name="Página-1" id="eqw94FW6iioMq22LxLIP">
    <mxGraphModel dx="2325" dy="727" grid="1" gridSize="10" guides="1" tooltips="1" connect="1" arrows="1" fold="1" page="1" pageScale="1" pageWidth="827" pageHeight="1169" math="0" shadow="0">
      <root>
        <mxCell id="0" />
        <mxCell id="1" parent="0" />
        <mxCell id="WWHfHFTnjNYMHQGQq1q6-8" style="edgeStyle=orthogonalEdgeStyle;rounded=0;orthogonalLoop=1;jettySize=auto;html=1;exitX=0.5;exitY=1;exitDx=0;exitDy=0;entryX=0.5;entryY=0;entryDx=0;entryDy=0;" parent="1" source="WWHfHFTnjNYMHQGQq1q6-1" target="WWHfHFTnjNYMHQGQq1q6-7" edge="1">
          <mxGeometry relative="1" as="geometry" />
        </mxCell>
        <mxCell id="WWHfHFTnjNYMHQGQq1q6-17" style="edgeStyle=orthogonalEdgeStyle;rounded=0;orthogonalLoop=1;jettySize=auto;html=1;exitX=0.5;exitY=1;exitDx=0;exitDy=0;entryX=0.5;entryY=0;entryDx=0;entryDy=0;" parent="1" source="WWHfHFTnjNYMHQGQq1q6-1" target="WWHfHFTnjNYMHQGQq1q6-16" edge="1">
          <mxGeometry relative="1" as="geometry" />
        </mxCell>
        <mxCell id="WWHfHFTnjNYMHQGQq1q6-1" value="Usuario&amp;nbsp;" style="ellipse;whiteSpace=wrap;html=1;" parent="1" vertex="1">
          <mxGeometry x="210" y="190" width="120" height="80" as="geometry" />
        </mxCell>
        <mxCell id="WWHfHFTnjNYMHQGQq1q6-11" style="edgeStyle=orthogonalEdgeStyle;rounded=0;orthogonalLoop=1;jettySize=auto;html=1;exitX=0;exitY=0.5;exitDx=0;exitDy=0;entryX=1;entryY=0.5;entryDx=0;entryDy=0;" parent="1" source="WWHfHFTnjNYMHQGQq1q6-2" target="WWHfHFTnjNYMHQGQq1q6-10" edge="1">
          <mxGeometry relative="1" as="geometry" />
        </mxCell>
        <mxCell id="WWHfHFTnjNYMHQGQq1q6-13" style="edgeStyle=orthogonalEdgeStyle;rounded=0;orthogonalLoop=1;jettySize=auto;html=1;exitX=0.5;exitY=1;exitDx=0;exitDy=0;entryX=0.5;entryY=0;entryDx=0;entryDy=0;" parent="1" source="WWHfHFTnjNYMHQGQq1q6-2" target="WWHfHFTnjNYMHQGQq1q6-12" edge="1">
          <mxGeometry relative="1" as="geometry" />
        </mxCell>
        <mxCell id="WWHfHFTnjNYMHQGQq1q6-2" value="Partida" style="ellipse;whiteSpace=wrap;html=1;" parent="1" vertex="1">
          <mxGeometry x="50" y="450" width="120" height="80" as="geometry" />
        </mxCell>
        <mxCell id="WWHfHFTnjNYMHQGQq1q6-5" style="edgeStyle=orthogonalEdgeStyle;rounded=0;orthogonalLoop=1;jettySize=auto;html=1;exitX=0.5;exitY=1;exitDx=0;exitDy=0;entryX=0.5;entryY=0;entryDx=0;entryDy=0;" parent="1" source="WWHfHFTnjNYMHQGQq1q6-3" target="WWHfHFTnjNYMHQGQq1q6-1" edge="1">
          <mxGeometry relative="1" as="geometry" />
        </mxCell>
        <mxCell id="WWHfHFTnjNYMHQGQq1q6-3" value="Nombre" style="rounded=0;whiteSpace=wrap;html=1;" parent="1" vertex="1">
          <mxGeometry x="210" y="90" width="120" height="60" as="geometry" />
        </mxCell>
        <mxCell id="WWHfHFTnjNYMHQGQq1q6-9" style="edgeStyle=orthogonalEdgeStyle;rounded=0;orthogonalLoop=1;jettySize=auto;html=1;exitX=0.5;exitY=1;exitDx=0;exitDy=0;entryX=0.5;entryY=0;entryDx=0;entryDy=0;" parent="1" source="WWHfHFTnjNYMHQGQq1q6-7" target="WWHfHFTnjNYMHQGQq1q6-2" edge="1">
          <mxGeometry relative="1" as="geometry" />
        </mxCell>
        <mxCell id="WWHfHFTnjNYMHQGQq1q6-7" value="Juega" style="rhombus;whiteSpace=wrap;html=1;" parent="1" vertex="1">
          <mxGeometry x="70" y="320" width="80" height="80" as="geometry" />
        </mxCell>
        <mxCell id="WWHfHFTnjNYMHQGQq1q6-10" value="Final alcanzado&amp;nbsp;" style="rounded=0;whiteSpace=wrap;html=1;" parent="1" vertex="1">
          <mxGeometry x="-120" y="460" width="120" height="60" as="geometry" />
        </mxCell>
        <mxCell id="WWHfHFTnjNYMHQGQq1q6-15" style="edgeStyle=orthogonalEdgeStyle;rounded=0;orthogonalLoop=1;jettySize=auto;html=1;exitX=0.5;exitY=1;exitDx=0;exitDy=0;entryX=0.5;entryY=0;entryDx=0;entryDy=0;" parent="1" source="WWHfHFTnjNYMHQGQq1q6-12" target="WWHfHFTnjNYMHQGQq1q6-14" edge="1">
          <mxGeometry relative="1" as="geometry" />
        </mxCell>
        <mxCell id="WWHfHFTnjNYMHQGQq1q6-12" value="Controla" style="rhombus;whiteSpace=wrap;html=1;" parent="1" vertex="1">
          <mxGeometry x="70" y="570" width="80" height="80" as="geometry" />
        </mxCell>
        <mxCell id="WWHfHFTnjNYMHQGQq1q6-37" style="edgeStyle=orthogonalEdgeStyle;rounded=0;orthogonalLoop=1;jettySize=auto;html=1;exitX=0.5;exitY=1;exitDx=0;exitDy=0;entryX=0.5;entryY=0;entryDx=0;entryDy=0;" parent="1" source="WWHfHFTnjNYMHQGQq1q6-14" target="WWHfHFTnjNYMHQGQq1q6-36" edge="1">
          <mxGeometry relative="1" as="geometry" />
        </mxCell>
        <mxCell id="WWHfHFTnjNYMHQGQq1q6-39" style="edgeStyle=orthogonalEdgeStyle;rounded=0;orthogonalLoop=1;jettySize=auto;html=1;exitX=0.5;exitY=1;exitDx=0;exitDy=0;entryX=0.5;entryY=0;entryDx=0;entryDy=0;" parent="1" source="WWHfHFTnjNYMHQGQq1q6-14" target="WWHfHFTnjNYMHQGQq1q6-35" edge="1">
          <mxGeometry relative="1" as="geometry" />
        </mxCell>
        <mxCell id="jBKz5-UlQVV1Ge5dZHgK-4" style="edgeStyle=orthogonalEdgeStyle;rounded=0;orthogonalLoop=1;jettySize=auto;html=1;exitX=0;exitY=0.5;exitDx=0;exitDy=0;entryX=1;entryY=0.5;entryDx=0;entryDy=0;" edge="1" parent="1" source="WWHfHFTnjNYMHQGQq1q6-14" target="jBKz5-UlQVV1Ge5dZHgK-3">
          <mxGeometry relative="1" as="geometry" />
        </mxCell>
        <mxCell id="WWHfHFTnjNYMHQGQq1q6-14" value="Protagonista" style="ellipse;whiteSpace=wrap;html=1;" parent="1" vertex="1">
          <mxGeometry x="50" y="680" width="120" height="80" as="geometry" />
        </mxCell>
        <mxCell id="WWHfHFTnjNYMHQGQq1q6-19" style="edgeStyle=orthogonalEdgeStyle;rounded=0;orthogonalLoop=1;jettySize=auto;html=1;exitX=0.5;exitY=1;exitDx=0;exitDy=0;entryX=0.5;entryY=0;entryDx=0;entryDy=0;" parent="1" source="WWHfHFTnjNYMHQGQq1q6-16" target="WWHfHFTnjNYMHQGQq1q6-18" edge="1">
          <mxGeometry relative="1" as="geometry" />
        </mxCell>
        <mxCell id="WWHfHFTnjNYMHQGQq1q6-16" value="Interactúa" style="rhombus;whiteSpace=wrap;html=1;" parent="1" vertex="1">
          <mxGeometry x="360" y="320" width="80" height="80" as="geometry" />
        </mxCell>
        <mxCell id="WWHfHFTnjNYMHQGQq1q6-21" style="edgeStyle=orthogonalEdgeStyle;rounded=0;orthogonalLoop=1;jettySize=auto;html=1;exitX=1;exitY=0.5;exitDx=0;exitDy=0;entryX=0;entryY=0.5;entryDx=0;entryDy=0;" parent="1" source="WWHfHFTnjNYMHQGQq1q6-18" target="WWHfHFTnjNYMHQGQq1q6-20" edge="1">
          <mxGeometry relative="1" as="geometry" />
        </mxCell>
        <mxCell id="WWHfHFTnjNYMHQGQq1q6-18" value="Desarrollo" style="ellipse;whiteSpace=wrap;html=1;" parent="1" vertex="1">
          <mxGeometry x="340" y="450" width="120" height="80" as="geometry" />
        </mxCell>
        <mxCell id="WWHfHFTnjNYMHQGQq1q6-23" style="edgeStyle=orthogonalEdgeStyle;rounded=0;orthogonalLoop=1;jettySize=auto;html=1;exitX=0.5;exitY=1;exitDx=0;exitDy=0;entryX=0.5;entryY=0;entryDx=0;entryDy=0;" parent="1" source="WWHfHFTnjNYMHQGQq1q6-20" target="WWHfHFTnjNYMHQGQq1q6-22" edge="1">
          <mxGeometry relative="1" as="geometry" />
        </mxCell>
        <mxCell id="WWHfHFTnjNYMHQGQq1q6-20" value="Nosotros/Equipo" style="rounded=0;whiteSpace=wrap;html=1;" parent="1" vertex="1">
          <mxGeometry x="520" y="460" width="120" height="60" as="geometry" />
        </mxCell>
        <mxCell id="WWHfHFTnjNYMHQGQq1q6-28" style="edgeStyle=orthogonalEdgeStyle;rounded=0;orthogonalLoop=1;jettySize=auto;html=1;exitX=0.5;exitY=1;exitDx=0;exitDy=0;entryX=0.5;entryY=0;entryDx=0;entryDy=0;" parent="1" source="WWHfHFTnjNYMHQGQq1q6-22" target="WWHfHFTnjNYMHQGQq1q6-26" edge="1">
          <mxGeometry relative="1" as="geometry" />
        </mxCell>
        <mxCell id="WWHfHFTnjNYMHQGQq1q6-22" value="Creamos" style="rhombus;whiteSpace=wrap;html=1;" parent="1" vertex="1">
          <mxGeometry x="540" y="550" width="80" height="80" as="geometry" />
        </mxCell>
        <mxCell id="WWHfHFTnjNYMHQGQq1q6-31" style="edgeStyle=orthogonalEdgeStyle;rounded=0;orthogonalLoop=1;jettySize=auto;html=1;exitX=0.5;exitY=1;exitDx=0;exitDy=0;entryX=0.5;entryY=0;entryDx=0;entryDy=0;" parent="1" source="WWHfHFTnjNYMHQGQq1q6-26" target="WWHfHFTnjNYMHQGQq1q6-29" edge="1">
          <mxGeometry relative="1" as="geometry" />
        </mxCell>
        <mxCell id="WWHfHFTnjNYMHQGQq1q6-32" style="edgeStyle=orthogonalEdgeStyle;rounded=0;orthogonalLoop=1;jettySize=auto;html=1;exitX=0.5;exitY=1;exitDx=0;exitDy=0;entryX=0.5;entryY=0;entryDx=0;entryDy=0;" parent="1" source="WWHfHFTnjNYMHQGQq1q6-26" target="WWHfHFTnjNYMHQGQq1q6-30" edge="1">
          <mxGeometry relative="1" as="geometry" />
        </mxCell>
        <mxCell id="WWHfHFTnjNYMHQGQq1q6-26" value="Contenido" style="ellipse;whiteSpace=wrap;html=1;" parent="1" vertex="1">
          <mxGeometry x="520" y="670" width="120" height="80" as="geometry" />
        </mxCell>
        <mxCell id="WWHfHFTnjNYMHQGQq1q6-29" value="Tipo" style="rounded=0;whiteSpace=wrap;html=1;" parent="1" vertex="1">
          <mxGeometry x="414" y="790" width="120" height="60" as="geometry" />
        </mxCell>
        <mxCell id="WWHfHFTnjNYMHQGQq1q6-30" value="Atributos" style="rounded=0;whiteSpace=wrap;html=1;" parent="1" vertex="1">
          <mxGeometry x="590" y="790" width="120" height="60" as="geometry" />
        </mxCell>
        <mxCell id="WWHfHFTnjNYMHQGQq1q6-33" value="Aliado" style="ellipse;whiteSpace=wrap;html=1;" parent="1" vertex="1">
          <mxGeometry x="-30" y="920" width="120" height="80" as="geometry" />
        </mxCell>
        <mxCell id="WWHfHFTnjNYMHQGQq1q6-43" style="edgeStyle=orthogonalEdgeStyle;rounded=0;orthogonalLoop=1;jettySize=auto;html=1;exitX=1;exitY=0.5;exitDx=0;exitDy=0;entryX=0;entryY=0.5;entryDx=0;entryDy=0;" parent="1" source="WWHfHFTnjNYMHQGQq1q6-34" target="WWHfHFTnjNYMHQGQq1q6-41" edge="1">
          <mxGeometry relative="1" as="geometry" />
        </mxCell>
        <mxCell id="WWHfHFTnjNYMHQGQq1q6-44" style="edgeStyle=orthogonalEdgeStyle;rounded=0;orthogonalLoop=1;jettySize=auto;html=1;exitX=1;exitY=0.5;exitDx=0;exitDy=0;entryX=0;entryY=0.5;entryDx=0;entryDy=0;" parent="1" source="WWHfHFTnjNYMHQGQq1q6-34" target="WWHfHFTnjNYMHQGQq1q6-42" edge="1">
          <mxGeometry relative="1" as="geometry" />
        </mxCell>
        <mxCell id="WWHfHFTnjNYMHQGQq1q6-46" style="edgeStyle=orthogonalEdgeStyle;rounded=0;orthogonalLoop=1;jettySize=auto;html=1;exitX=0.5;exitY=1;exitDx=0;exitDy=0;entryX=0.5;entryY=0;entryDx=0;entryDy=0;" parent="1" source="WWHfHFTnjNYMHQGQq1q6-34" target="WWHfHFTnjNYMHQGQq1q6-45" edge="1">
          <mxGeometry relative="1" as="geometry" />
        </mxCell>
        <mxCell id="WWHfHFTnjNYMHQGQq1q6-34" value="Villano" style="ellipse;whiteSpace=wrap;html=1;" parent="1" vertex="1">
          <mxGeometry x="140" y="920" width="120" height="80" as="geometry" />
        </mxCell>
        <mxCell id="WWHfHFTnjNYMHQGQq1q6-40" style="edgeStyle=orthogonalEdgeStyle;rounded=0;orthogonalLoop=1;jettySize=auto;html=1;exitX=0.5;exitY=1;exitDx=0;exitDy=0;entryX=0.5;entryY=0;entryDx=0;entryDy=0;" parent="1" source="WWHfHFTnjNYMHQGQq1q6-35" target="WWHfHFTnjNYMHQGQq1q6-33" edge="1">
          <mxGeometry relative="1" as="geometry" />
        </mxCell>
        <mxCell id="WWHfHFTnjNYMHQGQq1q6-35" value="Colabora con" style="rhombus;whiteSpace=wrap;html=1;" parent="1" vertex="1">
          <mxGeometry x="-10" y="800" width="80" height="80" as="geometry" />
        </mxCell>
        <mxCell id="WWHfHFTnjNYMHQGQq1q6-38" style="edgeStyle=orthogonalEdgeStyle;rounded=0;orthogonalLoop=1;jettySize=auto;html=1;exitX=0.5;exitY=1;exitDx=0;exitDy=0;entryX=0.5;entryY=0;entryDx=0;entryDy=0;" parent="1" source="WWHfHFTnjNYMHQGQq1q6-36" target="WWHfHFTnjNYMHQGQq1q6-34" edge="1">
          <mxGeometry relative="1" as="geometry" />
        </mxCell>
        <mxCell id="WWHfHFTnjNYMHQGQq1q6-36" value="Enfrenta" style="rhombus;whiteSpace=wrap;html=1;" parent="1" vertex="1">
          <mxGeometry x="160" y="800" width="80" height="80" as="geometry" />
        </mxCell>
        <mxCell id="WWHfHFTnjNYMHQGQq1q6-41" value="Nombre" style="rounded=0;whiteSpace=wrap;html=1;" parent="1" vertex="1">
          <mxGeometry x="330" y="910" width="120" height="60" as="geometry" />
        </mxCell>
        <mxCell id="WWHfHFTnjNYMHQGQq1q6-42" value="Poder" style="rounded=0;whiteSpace=wrap;html=1;" parent="1" vertex="1">
          <mxGeometry x="330" y="1000" width="120" height="60" as="geometry" />
        </mxCell>
        <mxCell id="WWHfHFTnjNYMHQGQq1q6-48" style="edgeStyle=orthogonalEdgeStyle;rounded=0;orthogonalLoop=1;jettySize=auto;html=1;exitX=0.5;exitY=1;exitDx=0;exitDy=0;entryX=0.5;entryY=0;entryDx=0;entryDy=0;" parent="1" source="WWHfHFTnjNYMHQGQq1q6-45" target="WWHfHFTnjNYMHQGQq1q6-47" edge="1">
          <mxGeometry relative="1" as="geometry" />
        </mxCell>
        <mxCell id="WWHfHFTnjNYMHQGQq1q6-45" value="Controla/&lt;br&gt;Destrullen" style="rhombus;whiteSpace=wrap;html=1;" parent="1" vertex="1">
          <mxGeometry x="160" y="1040" width="80" height="80" as="geometry" />
        </mxCell>
        <mxCell id="WWHfHFTnjNYMHQGQq1q6-51" style="edgeStyle=orthogonalEdgeStyle;rounded=0;orthogonalLoop=1;jettySize=auto;html=1;exitX=1;exitY=0.5;exitDx=0;exitDy=0;entryX=0;entryY=0.5;entryDx=0;entryDy=0;" parent="1" source="WWHfHFTnjNYMHQGQq1q6-47" target="WWHfHFTnjNYMHQGQq1q6-49" edge="1">
          <mxGeometry relative="1" as="geometry" />
        </mxCell>
        <mxCell id="WWHfHFTnjNYMHQGQq1q6-52" style="edgeStyle=orthogonalEdgeStyle;rounded=0;orthogonalLoop=1;jettySize=auto;html=1;exitX=1;exitY=0.5;exitDx=0;exitDy=0;entryX=0;entryY=0.5;entryDx=0;entryDy=0;" parent="1" source="WWHfHFTnjNYMHQGQq1q6-47" target="WWHfHFTnjNYMHQGQq1q6-50" edge="1">
          <mxGeometry relative="1" as="geometry" />
        </mxCell>
        <mxCell id="WWHfHFTnjNYMHQGQq1q6-54" style="edgeStyle=orthogonalEdgeStyle;rounded=0;orthogonalLoop=1;jettySize=auto;html=1;exitX=0.5;exitY=1;exitDx=0;exitDy=0;entryX=0.5;entryY=0;entryDx=0;entryDy=0;" parent="1" source="WWHfHFTnjNYMHQGQq1q6-47" target="WWHfHFTnjNYMHQGQq1q6-53" edge="1">
          <mxGeometry relative="1" as="geometry" />
        </mxCell>
        <mxCell id="jBKz5-UlQVV1Ge5dZHgK-2" style="edgeStyle=orthogonalEdgeStyle;rounded=0;orthogonalLoop=1;jettySize=auto;html=1;exitX=0;exitY=0.5;exitDx=0;exitDy=0;entryX=1;entryY=0.5;entryDx=0;entryDy=0;" edge="1" parent="1" source="WWHfHFTnjNYMHQGQq1q6-47" target="jBKz5-UlQVV1Ge5dZHgK-1">
          <mxGeometry relative="1" as="geometry" />
        </mxCell>
        <mxCell id="WWHfHFTnjNYMHQGQq1q6-47" value="Lugar" style="ellipse;whiteSpace=wrap;html=1;" parent="1" vertex="1">
          <mxGeometry x="140" y="1169" width="120" height="80" as="geometry" />
        </mxCell>
        <mxCell id="WWHfHFTnjNYMHQGQq1q6-49" value="Nombre" style="rounded=0;whiteSpace=wrap;html=1;" parent="1" vertex="1">
          <mxGeometry x="330" y="1140" width="120" height="60" as="geometry" />
        </mxCell>
        <mxCell id="WWHfHFTnjNYMHQGQq1q6-50" value="Estado" style="rounded=0;whiteSpace=wrap;html=1;" parent="1" vertex="1">
          <mxGeometry x="330" y="1240" width="120" height="60" as="geometry" />
        </mxCell>
        <mxCell id="WWHfHFTnjNYMHQGQq1q6-56" style="edgeStyle=orthogonalEdgeStyle;rounded=0;orthogonalLoop=1;jettySize=auto;html=1;exitX=0.5;exitY=1;exitDx=0;exitDy=0;entryX=0.5;entryY=0;entryDx=0;entryDy=0;" parent="1" source="WWHfHFTnjNYMHQGQq1q6-53" target="WWHfHFTnjNYMHQGQq1q6-55" edge="1">
          <mxGeometry relative="1" as="geometry" />
        </mxCell>
        <mxCell id="WWHfHFTnjNYMHQGQq1q6-53" value="Contiene" style="rhombus;whiteSpace=wrap;html=1;" parent="1" vertex="1">
          <mxGeometry x="160" y="1290" width="80" height="80" as="geometry" />
        </mxCell>
        <mxCell id="WWHfHFTnjNYMHQGQq1q6-55" value="Objetivo clave" style="ellipse;whiteSpace=wrap;html=1;" parent="1" vertex="1">
          <mxGeometry x="140" y="1410" width="120" height="80" as="geometry" />
        </mxCell>
        <mxCell id="jBKz5-UlQVV1Ge5dZHgK-1" value="Objetos" style="rounded=0;whiteSpace=wrap;html=1;" vertex="1" parent="1">
          <mxGeometry x="-80" y="1130" width="120" height="60" as="geometry" />
        </mxCell>
        <mxCell id="jBKz5-UlQVV1Ge5dZHgK-6" style="edgeStyle=orthogonalEdgeStyle;rounded=0;orthogonalLoop=1;jettySize=auto;html=1;exitX=0.5;exitY=1;exitDx=0;exitDy=0;entryX=0.5;entryY=0;entryDx=0;entryDy=0;" edge="1" parent="1" source="jBKz5-UlQVV1Ge5dZHgK-3" target="jBKz5-UlQVV1Ge5dZHgK-5">
          <mxGeometry relative="1" as="geometry" />
        </mxCell>
        <mxCell id="jBKz5-UlQVV1Ge5dZHgK-3" value="Mochila" style="rounded=0;whiteSpace=wrap;html=1;" vertex="1" parent="1">
          <mxGeometry x="-180" y="690" width="120" height="60" as="geometry" />
        </mxCell>
        <mxCell id="jBKz5-UlQVV1Ge5dZHgK-7" style="edgeStyle=orthogonalEdgeStyle;rounded=0;orthogonalLoop=1;jettySize=auto;html=1;exitX=0.5;exitY=1;exitDx=0;exitDy=0;entryX=0;entryY=0.5;entryDx=0;entryDy=0;" edge="1" parent="1" source="jBKz5-UlQVV1Ge5dZHgK-5" target="jBKz5-UlQVV1Ge5dZHgK-1">
          <mxGeometry relative="1" as="geometry" />
        </mxCell>
        <mxCell id="jBKz5-UlQVV1Ge5dZHgK-5" value="consigue" style="rhombus;whiteSpace=wrap;html=1;" vertex="1" parent="1">
          <mxGeometry x="-160" y="880" width="80" height="80" as="geometry" />
        </mxCell>
      </root>
    </mxGraphModel>
  </diagram>
</mxfile>
